<?xml version="1.0" standalone="no"?>
<!DOCTYPE svg PUBLIC "-//W3C//DTD SVG 20010904//EN"
 "http://www.w3.org/TR/2001/REC-SVG-20010904/DTD/svg10.dtd">
<svg version="1.0" xmlns="http://www.w3.org/2000/svg"
 width="16.000000pt" height="16.000000pt" viewBox="0 0 16.000000 16.000000"
 preserveAspectRatio="xMidYMid meet">
<metadata>
Created by potrace 1.11, written by Peter Selinger 2001-2013
</metadata>
<g transform="translate(0.000000,16.000000) scale(0.002086,-0.002086)"
fill="#000000" stroke="none">
<path d="M3610 7624 c-530 -39 -1005 -166 -1454 -390 -643 -321 -1160 -801
-1534 -1426 -75 -125 -213 -412 -267 -558 -339 -912 -290 -1920 135 -2795 181
-372 403 -680 709 -985 601 -597 1346 -952 2231 -1062 65 -8 219 -13 405 -13
379 0 573 22 910 105 1446 354 2542 1546 2756 2995 142 966 -131 1973 -744
2735 -622 774 -1496 1255 -2497 1375 -129 15 -535 27 -650 19z m1719 -971 c44
-88 54 -143 42 -224 -27 -170 -137 -302 -342 -408 -177 -93 -450 -131 -950
-131 l-245 0 -129 -647 c-70 -357 -130 -655 -133 -663 -2 -8 12 11 32 43 147
239 370 413 641 502 255 83 590 99 834 39 81 -20 193 -72 244 -114 109 -91
110 -234 3 -425 -18 -33 -38 -60 -44 -60 -6 0 -29 28 -51 62 -110 171 -264
273 -466 308 -346 60 -662 -84 -791 -360 -44 -95 -58 -175 -51 -293 8 -155 28
-194 166 -336 64 -65 229 -223 366 -351 388 -359 529 -526 641 -758 83 -173
107 -313 84 -493 -41 -332 -211 -592 -517 -794 -227 -150 -480 -224 -808 -237
-366 -14 -640 74 -835 267 -123 121 -176 250 -168 409 5 109 38 171 158 292
52 52 109 105 126 117 l31 21 6 -92 c21 -362 222 -620 552 -709 66 -18 107
-21 240 -21 193 0 268 16 420 93 297 149 460 430 389 671 -60 205 -231 417
-645 802 -134 124 -269 255 -300 289 -199 226 -303 413 -332 600 l-13 83 -107
-545 c-140 -708 -137 -680 -101 -808 6 -20 -1 -26 -59 -52 -101 -46 -233 -81
-327 -87 -96 -6 -131 4 -156 43 -16 24 -17 35 -6 119 6 51 144 762 307 1580
162 818 295 1492 295 1496 0 12 -472 11 -650 -1 -176 -12 -405 -44 -543 -75
-56 -12 -103 -22 -105 -20 -6 5 52 174 78 225 50 98 84 136 152 169 130 63
139 64 1313 71 1169 7 1103 4 1293 72 160 58 303 178 387 326 22 38 41 69 42
68 1 -1 15 -29 32 -63z"/>
</g>
</svg>
